<svg width="125" height="48" viewBox="0 0 125 48" fill="none" xmlns="http://www.w3.org/2000/svg">
<g clip-path="url(#clip0_166_1402)">
<path d="M107.068 28.372H116.148V44.0561L107.068 28.372ZM81.1108 19.5975V0.978344L91.842 19.5975H81.1108ZM41.2739 44.6675H50.6599V28.372H67.1694V19.5975H50.6599V0.152866H41.2739V44.6675ZM13.758 44.6675H23.1439V8.92739H36.6268V0.152866H0.275162V8.92739H13.758V44.6675ZM115.261 44.6675H125.503V42.2217C125.503 30.6955 118.532 19.628 105.111 19.628H101.962L94.8688 7.33758C92.056 2.47643 88.1427 0.183439 81.814 0.183439H71.7248V44.6981H81.1108V28.4025H96.9172L102.176 37.544C105.019 42.3745 108.932 44.6675 115.261 44.6675Z" fill="#FF0350"/>
</g>
<defs>
<clipPath id="clip0_166_1402">
<rect width="125" height="48" fill="white"/>
</clipPath>
</defs>
</svg>
